<svg width="29" height="29" viewBox="0 0 29 29" fill="none" xmlns="http://www.w3.org/2000/svg">
<path fill-rule="evenodd" clip-rule="evenodd" d="M8.21009 2.84818C9.79558 1.4808 12.0038 0.5 14.5 0.5C19.2079 0.5 23.1158 3.99902 23.54 8.51322C26.3267 8.90719 28.5 11.239 28.5 14.1023C28.5 17.2466 25.8791 19.75 22.7031 19.75H18C17.5168 19.75 17.125 19.3582 17.125 18.875C17.125 18.3918 17.5168 18 18 18H22.7031C24.9637 18 26.75 16.2297 26.75 14.1023C26.75 11.9748 24.9637 10.2045 22.7031 10.2045H21.8281V9.32955C21.8281 5.44481 18.5728 2.25 14.5 2.25C12.4658 2.25 10.6544 3.05102 9.35301 4.17341C8.02903 5.31525 7.33594 6.69202 7.33594 7.77046V8.55455L6.55654 8.64022C4.11149 8.90896 2.25 10.9171 2.25 13.3068C2.25 15.8736 4.40354 18 7.11719 18H11C11.4832 18 11.875 18.3918 11.875 18.875C11.875 19.3582 11.4832 19.75 11 19.75H7.11719C3.48819 19.75 0.5 16.8905 0.5 13.3068C0.5 10.2214 2.71526 7.66645 5.6489 7.01875C5.89839 5.50798 6.86974 4.00414 8.21009 2.84818Z" fill="white"/>
<path fill-rule="evenodd" clip-rule="evenodd" d="M13.8813 7.75628C14.223 7.41457 14.777 7.41457 15.1187 7.75628L20.3687 13.0063C20.7104 13.348 20.7104 13.902 20.3687 14.2437C20.027 14.5854 19.473 14.5854 19.1313 14.2437L15.375 10.4874V25.875C15.375 26.3582 14.9832 26.75 14.5 26.75C14.0168 26.75 13.625 26.3582 13.625 25.875V10.4874L9.86872 14.2437C9.52701 14.5854 8.97299 14.5854 8.63128 14.2437C8.28957 13.902 8.28957 13.348 8.63128 13.0063L13.8813 7.75628Z" fill="white"/>
<path d="M8.21009 2.84818L8.53663 3.22682L8.21009 2.84818ZM23.54 8.51322L23.0422 8.56L23.0791 8.95304L23.47 9.0083L23.54 8.51322ZM21.8281 10.2045H21.3281V10.7045H21.8281V10.2045ZM9.35301 4.17341L9.02646 3.79477V3.79477L9.35301 4.17341ZM7.33594 8.55455L7.39057 9.05156L7.83594 9.0026V8.55455H7.33594ZM6.55654 8.64022L6.50191 8.14321L6.55654 8.64022ZM5.6489 7.01875L5.75669 7.50699L6.08709 7.43404L6.14222 7.10021L5.6489 7.01875ZM15.1187 7.75628L14.7652 8.10984L15.1187 7.75628ZM13.8813 7.75628L14.2348 8.10984H14.2348L13.8813 7.75628ZM20.3687 13.0063L20.0152 13.3598V13.3598L20.3687 13.0063ZM20.3687 14.2437L20.0152 13.8902V13.8902L20.3687 14.2437ZM19.1313 14.2437L19.4848 13.8902L19.1313 14.2437ZM15.375 10.4874L15.7286 10.1339C15.5856 9.99088 15.3705 9.94811 15.1837 10.0255C14.9968 10.1029 14.875 10.2852 14.875 10.4874H15.375ZM13.625 10.4874H14.125C14.125 10.2852 14.0032 10.1029 13.8163 10.0255C13.6295 9.94811 13.4144 9.99088 13.2714 10.1339L13.625 10.4874ZM9.86872 14.2437L9.51517 13.8902H9.51516L9.86872 14.2437ZM8.63128 14.2437L8.98484 13.8902L8.98483 13.8902L8.63128 14.2437ZM8.63128 13.0063L8.98483 13.3598V13.3598L8.63128 13.0063ZM14.5 0.5V0C11.8717 0 9.55015 1.0322 7.88354 2.46954L8.21009 2.84818L8.53663 3.22682C10.041 1.9294 12.1358 1 14.5 1V0.5ZM23.54 8.51322L24.0378 8.46644C23.5884 3.68485 19.4553 0 14.5 0V0.5V1C18.9606 1 22.6431 4.31319 23.0422 8.56L23.54 8.51322ZM28.5 14.1023H29C29 10.9742 26.6274 8.44474 23.61 8.01814L23.54 8.51322L23.47 9.0083C26.0259 9.36964 28 11.5038 28 14.1023H28.5ZM22.7031 19.75V20.25C26.1399 20.25 29 17.5378 29 14.1023H28.5H28C28 16.9554 25.6182 19.25 22.7031 19.25V19.75ZM18 19.75V20.25H22.7031V19.75V19.25H18V19.75ZM17.125 18.875H16.625C16.625 19.6344 17.2406 20.25 18 20.25V19.75V19.25C17.7929 19.25 17.625 19.0821 17.625 18.875H17.125ZM18 18V17.5C17.2406 17.5 16.625 18.1156 16.625 18.875H17.125H17.625C17.625 18.6679 17.7929 18.5 18 18.5V18ZM22.7031 18V17.5H18V18V18.5H22.7031V18ZM26.75 14.1023H26.25C26.25 15.9402 24.7012 17.5 22.7031 17.5V18V18.5C25.2262 18.5 27.25 16.5193 27.25 14.1023H26.75ZM22.7031 10.2045V10.7045C24.7012 10.7045 26.25 12.2644 26.25 14.1023H26.75H27.25C27.25 11.6852 25.2262 9.70455 22.7031 9.70455V10.2045ZM21.8281 10.2045V10.7045H22.7031V10.2045V9.70455H21.8281V10.2045ZM21.8281 9.32955H21.3281V10.2045H21.8281H22.3281V9.32955H21.8281ZM14.5 2.25V2.75C18.3107 2.75 21.3281 5.73482 21.3281 9.32955H21.8281H22.3281C22.3281 5.1548 18.8349 1.75 14.5 1.75V2.25ZM9.35301 4.17341L9.67955 4.55205C10.8998 3.4997 12.5977 2.75 14.5 2.75V2.25V1.75C12.3338 1.75 10.4091 2.60234 9.02646 3.79477L9.35301 4.17341ZM7.33594 7.77046H7.83594C7.83594 6.88442 8.42432 5.6346 9.67955 4.55205L9.35301 4.17341L9.02646 3.79477C7.63374 4.9959 6.83594 6.49963 6.83594 7.77046H7.33594ZM7.33594 8.55455H7.83594V7.77046H7.33594H6.83594V8.55455H7.33594ZM6.55654 8.64022L6.61117 9.13722L7.39057 9.05156L7.33594 8.55455L7.28131 8.05754L6.50191 8.14321L6.55654 8.64022ZM2.25 13.3068H2.75C2.75 11.1857 4.40586 9.37962 6.61117 9.13722L6.55654 8.64022L6.50191 8.14321C3.81712 8.43831 1.75 10.6486 1.75 13.3068H2.25ZM7.11719 18V17.5C4.66588 17.5 2.75 15.5839 2.75 13.3068H2.25H1.75C1.75 16.1634 4.1412 18.5 7.11719 18.5V18ZM11 18V17.5H7.11719V18V18.5H11V18ZM11.875 18.875H12.375C12.375 18.1156 11.7594 17.5 11 17.5V18V18.5C11.2071 18.5 11.375 18.6679 11.375 18.875H11.875ZM11 19.75V20.25C11.7594 20.25 12.375 19.6344 12.375 18.875H11.875H11.375C11.375 19.0821 11.2071 19.25 11 19.25V19.75ZM7.11719 19.75V20.25H11V19.75V19.25H7.11719V19.75ZM0.5 13.3068H0C0 17.1816 3.22726 20.25 7.11719 20.25V19.75V19.25C3.74912 19.25 1 16.5994 1 13.3068H0.5ZM5.6489 7.01875L5.5411 6.5305C2.39327 7.2255 0 9.97192 0 13.3068H0.5H1C1 10.471 3.03724 8.10741 5.75669 7.50699L5.6489 7.01875ZM8.21009 2.84818L7.88354 2.46954C6.48043 3.67963 5.42907 5.2812 5.15558 6.93728L5.6489 7.01875L6.14222 7.10021C6.36771 5.73476 7.25904 4.32866 8.53663 3.22682L8.21009 2.84818ZM15.1187 7.75628L15.4723 7.40273C14.9353 6.86576 14.0647 6.86576 13.5277 7.40273L13.8813 7.75628L14.2348 8.10984C14.3813 7.96339 14.6187 7.96339 14.7652 8.10984L15.1187 7.75628ZM20.3687 13.0063L20.7223 12.6527L15.4723 7.40273L15.1187 7.75628L14.7652 8.10984L20.0152 13.3598L20.3687 13.0063ZM20.3687 14.2437L20.7223 14.5973C21.2592 14.0603 21.2592 13.1897 20.7223 12.6527L20.3687 13.0063L20.0152 13.3598C20.1616 13.5063 20.1616 13.7437 20.0152 13.8902L20.3687 14.2437ZM19.1313 14.2437L18.7777 14.5973C19.3147 15.1342 20.1853 15.1342 20.7223 14.5973L20.3687 14.2437L20.0152 13.8902C19.8687 14.0366 19.6313 14.0366 19.4848 13.8902L19.1313 14.2437ZM15.375 10.4874L15.0214 10.841L18.7777 14.5973L19.1313 14.2437L19.4848 13.8902L15.7286 10.1339L15.375 10.4874ZM15.375 25.875H15.875V10.4874H15.375H14.875V25.875H15.375ZM14.5 26.75V27.25C15.2594 27.25 15.875 26.6344 15.875 25.875H15.375H14.875C14.875 26.0821 14.7071 26.25 14.5 26.25V26.75ZM13.625 25.875H13.125C13.125 26.6344 13.7406 27.25 14.5 27.25V26.75V26.25C14.2929 26.25 14.125 26.0821 14.125 25.875H13.625ZM13.625 10.4874H13.125V25.875H13.625H14.125V10.4874H13.625ZM9.86872 14.2437L10.2223 14.5973L13.9786 10.841L13.625 10.4874L13.2714 10.1339L9.51517 13.8902L9.86872 14.2437ZM8.63128 14.2437L8.27773 14.5973C8.8147 15.1342 9.6853 15.1342 10.2223 14.5973L9.86872 14.2437L9.51516 13.8902C9.36872 14.0366 9.13128 14.0366 8.98484 13.8902L8.63128 14.2437ZM8.63128 13.0063L8.27773 12.6527C7.74076 13.1897 7.74076 14.0603 8.27773 14.5973L8.63128 14.2437L8.98483 13.8902C8.83839 13.7437 8.83839 13.5063 8.98483 13.3598L8.63128 13.0063ZM13.8813 7.75628L13.5277 7.40273L8.27773 12.6527L8.63128 13.0063L8.98483 13.3598L14.2348 8.10984L13.8813 7.75628Z" fill="white"/>
</svg>
